<mxfile host="app.diagrams.net" agent="Mozilla/5.0 (Windows NT 10.0; Win64; x64) AppleWebKit/537.36 (KHTML, like Gecko) Chrome/140.0.0.0 Safari/537.36 Edg/140.0.0.0" version="28.2.5">
  <diagram name="Page-1" id="cxfinp_9m-ERu-IybLJ7">
    <mxGraphModel dx="1098" dy="606" grid="1" gridSize="10" guides="1" tooltips="1" connect="1" arrows="1" fold="1" page="1" pageScale="1" pageWidth="850" pageHeight="1100" math="0" shadow="0">
      <root>
        <mxCell id="0" />
        <mxCell id="1" parent="0" />
        <mxCell id="w2QZgpeMLFy16XwYwDmN-3" value="" style="edgeStyle=orthogonalEdgeStyle;rounded=0;orthogonalLoop=1;jettySize=auto;html=1;" edge="1" parent="1" source="w2QZgpeMLFy16XwYwDmN-1" target="w2QZgpeMLFy16XwYwDmN-2">
          <mxGeometry relative="1" as="geometry" />
        </mxCell>
        <mxCell id="w2QZgpeMLFy16XwYwDmN-1" value="Start: Admin Logs in" style="rounded=0;whiteSpace=wrap;html=1;" vertex="1" parent="1">
          <mxGeometry x="365" y="30" width="120" height="60" as="geometry" />
        </mxCell>
        <mxCell id="w2QZgpeMLFy16XwYwDmN-5" value="" style="edgeStyle=orthogonalEdgeStyle;rounded=0;orthogonalLoop=1;jettySize=auto;html=1;" edge="1" parent="1" source="w2QZgpeMLFy16XwYwDmN-2" target="w2QZgpeMLFy16XwYwDmN-4">
          <mxGeometry relative="1" as="geometry" />
        </mxCell>
        <mxCell id="w2QZgpeMLFy16XwYwDmN-2" value="Access &#39;User Management&#39;" style="whiteSpace=wrap;html=1;rounded=0;" vertex="1" parent="1">
          <mxGeometry x="365" y="110" width="120" height="60" as="geometry" />
        </mxCell>
        <mxCell id="w2QZgpeMLFy16XwYwDmN-7" value="" style="edgeStyle=orthogonalEdgeStyle;rounded=0;orthogonalLoop=1;jettySize=auto;html=1;" edge="1" parent="1" source="w2QZgpeMLFy16XwYwDmN-4" target="w2QZgpeMLFy16XwYwDmN-6">
          <mxGeometry relative="1" as="geometry" />
        </mxCell>
        <mxCell id="w2QZgpeMLFy16XwYwDmN-4" value="Search/Filter Student" style="whiteSpace=wrap;html=1;rounded=0;" vertex="1" parent="1">
          <mxGeometry x="365" y="190" width="120" height="60" as="geometry" />
        </mxCell>
        <mxCell id="w2QZgpeMLFy16XwYwDmN-11" value="" style="edgeStyle=orthogonalEdgeStyle;rounded=0;orthogonalLoop=1;jettySize=auto;html=1;" edge="1" parent="1" source="w2QZgpeMLFy16XwYwDmN-6" target="w2QZgpeMLFy16XwYwDmN-10">
          <mxGeometry relative="1" as="geometry" />
        </mxCell>
        <mxCell id="w2QZgpeMLFy16XwYwDmN-6" value="Select Student" style="whiteSpace=wrap;html=1;rounded=0;" vertex="1" parent="1">
          <mxGeometry x="365" y="270" width="120" height="60" as="geometry" />
        </mxCell>
        <mxCell id="w2QZgpeMLFy16XwYwDmN-13" value="" style="edgeStyle=orthogonalEdgeStyle;rounded=0;orthogonalLoop=1;jettySize=auto;html=1;" edge="1" parent="1" source="w2QZgpeMLFy16XwYwDmN-10" target="w2QZgpeMLFy16XwYwDmN-12">
          <mxGeometry relative="1" as="geometry" />
        </mxCell>
        <mxCell id="w2QZgpeMLFy16XwYwDmN-10" value="Review Student Details" style="whiteSpace=wrap;html=1;rounded=0;" vertex="1" parent="1">
          <mxGeometry x="365" y="350" width="120" height="60" as="geometry" />
        </mxCell>
        <mxCell id="w2QZgpeMLFy16XwYwDmN-15" value="No" style="edgeStyle=orthogonalEdgeStyle;rounded=0;orthogonalLoop=1;jettySize=auto;html=1;" edge="1" parent="1" source="w2QZgpeMLFy16XwYwDmN-12" target="w2QZgpeMLFy16XwYwDmN-14">
          <mxGeometry relative="1" as="geometry" />
        </mxCell>
        <mxCell id="w2QZgpeMLFy16XwYwDmN-19" value="Yes" style="edgeStyle=orthogonalEdgeStyle;rounded=0;orthogonalLoop=1;jettySize=auto;html=1;" edge="1" parent="1" source="w2QZgpeMLFy16XwYwDmN-12">
          <mxGeometry relative="1" as="geometry">
            <mxPoint x="425" y="600" as="targetPoint" />
          </mxGeometry>
        </mxCell>
        <mxCell id="w2QZgpeMLFy16XwYwDmN-12" value="Qualifies?" style="rhombus;whiteSpace=wrap;html=1;rounded=0;" vertex="1" parent="1">
          <mxGeometry x="385" y="480" width="80" height="80" as="geometry" />
        </mxCell>
        <mxCell id="w2QZgpeMLFy16XwYwDmN-17" value="" style="edgeStyle=orthogonalEdgeStyle;rounded=0;orthogonalLoop=1;jettySize=auto;html=1;" edge="1" parent="1" source="w2QZgpeMLFy16XwYwDmN-14" target="w2QZgpeMLFy16XwYwDmN-16">
          <mxGeometry relative="1" as="geometry" />
        </mxCell>
        <mxCell id="w2QZgpeMLFy16XwYwDmN-14" value="Log reason for denial" style="whiteSpace=wrap;html=1;rounded=0;" vertex="1" parent="1">
          <mxGeometry x="205" y="490" width="120" height="60" as="geometry" />
        </mxCell>
        <mxCell id="w2QZgpeMLFy16XwYwDmN-16" value="End" style="whiteSpace=wrap;html=1;rounded=0;" vertex="1" parent="1">
          <mxGeometry x="60" y="490" width="120" height="60" as="geometry" />
        </mxCell>
        <mxCell id="w2QZgpeMLFy16XwYwDmN-21" value="" style="edgeStyle=orthogonalEdgeStyle;rounded=0;orthogonalLoop=1;jettySize=auto;html=1;" edge="1" parent="1" target="w2QZgpeMLFy16XwYwDmN-20">
          <mxGeometry relative="1" as="geometry">
            <mxPoint x="425" y="660" as="sourcePoint" />
          </mxGeometry>
        </mxCell>
        <mxCell id="w2QZgpeMLFy16XwYwDmN-23" value="" style="edgeStyle=orthogonalEdgeStyle;rounded=0;orthogonalLoop=1;jettySize=auto;html=1;" edge="1" parent="1" source="w2QZgpeMLFy16XwYwDmN-20" target="w2QZgpeMLFy16XwYwDmN-22">
          <mxGeometry relative="1" as="geometry" />
        </mxCell>
        <mxCell id="w2QZgpeMLFy16XwYwDmN-20" value="Send Role offer email" style="whiteSpace=wrap;html=1;rounded=0;" vertex="1" parent="1">
          <mxGeometry x="365" y="690" width="120" height="60" as="geometry" />
        </mxCell>
        <mxCell id="w2QZgpeMLFy16XwYwDmN-25" value="No" style="edgeStyle=orthogonalEdgeStyle;rounded=0;orthogonalLoop=1;jettySize=auto;html=1;" edge="1" parent="1" source="w2QZgpeMLFy16XwYwDmN-22" target="w2QZgpeMLFy16XwYwDmN-24">
          <mxGeometry relative="1" as="geometry" />
        </mxCell>
        <mxCell id="w2QZgpeMLFy16XwYwDmN-27" value="Yes" style="edgeStyle=orthogonalEdgeStyle;rounded=0;orthogonalLoop=1;jettySize=auto;html=1;" edge="1" parent="1" source="w2QZgpeMLFy16XwYwDmN-22" target="w2QZgpeMLFy16XwYwDmN-26">
          <mxGeometry relative="1" as="geometry" />
        </mxCell>
        <mxCell id="w2QZgpeMLFy16XwYwDmN-22" value="Accepts?" style="rhombus;whiteSpace=wrap;html=1;rounded=0;" vertex="1" parent="1">
          <mxGeometry x="385" y="780" width="80" height="80" as="geometry" />
        </mxCell>
        <mxCell id="w2QZgpeMLFy16XwYwDmN-24" value="Log decline and notify Admin" style="whiteSpace=wrap;html=1;rounded=0;" vertex="1" parent="1">
          <mxGeometry x="205" y="790" width="120" height="60" as="geometry" />
        </mxCell>
        <mxCell id="w2QZgpeMLFy16XwYwDmN-30" value="" style="edgeStyle=orthogonalEdgeStyle;rounded=0;orthogonalLoop=1;jettySize=auto;html=1;" edge="1" parent="1" source="w2QZgpeMLFy16XwYwDmN-26" target="w2QZgpeMLFy16XwYwDmN-29">
          <mxGeometry relative="1" as="geometry" />
        </mxCell>
        <mxCell id="w2QZgpeMLFy16XwYwDmN-26" value="Apply Tutor role" style="whiteSpace=wrap;html=1;rounded=0;" vertex="1" parent="1">
          <mxGeometry x="365" y="900" width="120" height="60" as="geometry" />
        </mxCell>
        <mxCell id="w2QZgpeMLFy16XwYwDmN-28" value="Define Subject experise" style="shape=parallelogram;perimeter=parallelogramPerimeter;whiteSpace=wrap;html=1;fixedSize=1;" vertex="1" parent="1">
          <mxGeometry x="365" y="600" width="120" height="60" as="geometry" />
        </mxCell>
        <mxCell id="w2QZgpeMLFy16XwYwDmN-29" value="End" style="whiteSpace=wrap;html=1;rounded=0;" vertex="1" parent="1">
          <mxGeometry x="365" y="990" width="120" height="60" as="geometry" />
        </mxCell>
      </root>
    </mxGraphModel>
  </diagram>
</mxfile>
